<svg width="373" height="377" viewBox="0 0 373 377" fill="none" xmlns="http://www.w3.org/2000/svg">
<path fill-rule="evenodd" clip-rule="evenodd" d="M372.676 240.045C342.295 259.87 305.282 269.861 266.464 266.033C175.502 257.063 109.079 175.607 118.103 84.0951C121.212 52.568 132.871 23.9604 150.538 0.369629C71.9032 17.233 9.66569 83.2195 1.35051 167.54C-8.94759 271.968 67.3598 364.971 171.787 375.269C264.066 384.369 347.424 325.843 372.676 240.045ZM258 33L269.226 67.5492H305.553L276.163 88.9017L287.389 123.451L258 102.098L228.611 123.451L239.836 88.9017L210.447 67.5492H246.774L258 33ZM315.858 157.184L308 133L300.142 157.184H274.713L295.285 172.131L287.427 196.316L308 181.369L328.572 196.316L320.715 172.131L341.287 157.184H315.858Z" fill="black"/>
</svg>
