<svg width="1305" height="1310" viewBox="0 0 1305 1310" fill="none" xmlns="http://www.w3.org/2000/svg">
<path fill-rule="evenodd" clip-rule="evenodd" d="M125.437 342.801C125.437 217.586 227.302 115.721 352.517 115.721C477.731 115.721 579.595 217.586 579.595 342.801C579.595 468.015 477.731 569.88 352.517 569.88C227.302 569.88 125.437 468.015 125.437 342.801ZM364.645 94.1016C364.645 100.595 359.375 105.864 352.882 105.864C346.388 105.864 341.118 100.595 341.119 94.1016V11.7628C341.119 5.26964 346.389 0 352.882 0C359.374 0 364.645 5.26964 364.645 11.7628V94.1016ZM341.119 599.898C341.119 593.405 346.389 588.137 352.882 588.137C359.374 588.137 364.645 593.405 364.645 599.898V682.237C364.645 688.73 359.375 694 352.882 694C346.389 694 341.119 688.73 341.119 682.237V599.898ZM11.7628 341.118H94.1016C100.595 341.118 105.864 346.388 105.864 352.882C105.864 359.375 100.595 364.645 94.1016 364.645H11.7628C5.26964 364.645 0 359.375 0 352.882C0 346.388 5.26964 341.118 11.7628 341.118ZM599.898 341.118H682.237C688.73 341.118 694 346.388 694 352.881C694 359.374 688.73 364.644 682.237 364.644H599.898C593.405 364.644 588.137 359.374 588.137 352.881C588.137 346.388 593.405 341.118 599.898 341.118ZM174.065 179.934C171.053 179.934 168.042 178.781 165.748 176.488L107.522 118.262C102.923 113.664 102.923 106.23 107.522 101.63C112.122 97.0307 119.555 97.0307 124.155 101.63L182.38 159.856C186.98 164.455 186.98 171.889 182.38 176.488C180.087 178.781 177.075 179.934 174.065 179.934ZM523.394 517.512C527.981 512.912 535.427 512.912 540.026 517.512L598.24 575.738C602.84 580.337 602.84 587.77 598.24 592.37C595.946 594.664 592.935 595.817 589.924 595.817C586.913 595.817 583.901 594.664 581.607 592.37L523.394 534.144C518.794 529.545 518.794 522.111 523.394 517.512ZM107.511 575.725L165.737 517.5C170.335 512.914 177.782 512.914 182.369 517.5C186.968 522.1 186.968 529.533 182.369 534.133L124.143 592.358C121.849 594.651 118.838 595.805 115.827 595.805C112.816 595.805 109.805 594.651 107.511 592.358C102.912 587.77 102.912 580.326 107.511 575.725ZM540.026 176.488C537.733 178.781 534.721 179.934 531.711 179.934C528.698 179.934 525.687 178.781 523.394 176.488C518.794 171.89 518.794 164.455 523.394 159.856L581.62 101.643C586.219 97.0432 593.652 97.0432 598.252 101.643C602.851 106.242 602.851 113.675 598.252 118.275L540.026 176.488ZM1259 1051.95C1209.95 1083.96 1150.19 1100.09 1087.52 1093.91C940.668 1079.43 833.428 947.916 847.998 800.173C853.017 749.273 871.839 703.087 900.363 665C773.409 692.225 672.928 798.759 659.503 934.893C642.877 1103.49 766.074 1253.64 934.669 1270.27C1083.65 1284.96 1218.23 1190.47 1259 1051.95ZM1073.86 717.681L1091.98 773.46H1150.63L1103.18 807.933L1121.31 863.712L1073.86 829.239L1026.41 863.712L1044.53 807.933L997.085 773.46H1055.73L1073.86 717.681ZM1167.27 918.174L1154.58 879.129L1141.89 918.174H1100.84L1134.05 942.305L1121.37 981.35L1154.58 957.219L1187.8 981.35L1175.11 942.305L1208.32 918.174H1167.27ZM25 1310L1305 32L1287.34 14.3086L7.33616 1292.31L25 1310Z" fill="black"/>
</svg>
